Coordinates
version=1
nRows=27
nColumns=12
inDegrees=yes

Units are S.I. units (second, meters, Newtons, ...)
Angles are in degrees

endheader
time	SC_y	SC_z	SC_x	AC_y	AC_z	AC_x	GH_y	GH_z	GH_yy	EL_x	PS_y
       0.0              -13.65          3.731          66.55          48.22         -16.69         0.2611          155.1          40.81         -74.96          75.33          27.13
   0.00257              -13.65          3.731          66.55          48.22         -16.69         0.2597          155.0           40.8         -74.96          75.34          27.13
   0.00514              -13.65          3.731          66.55          48.22         -16.68         0.2581          155.0           40.8         -74.97          75.35          27.13
   0.00771              -13.65          3.731          66.55          48.22         -16.68         0.2564          154.9           40.8         -74.98          75.36          27.14
   0.01028              -13.65          3.731          66.55          48.22         -16.67         0.2546          154.9          40.79         -74.98          75.37          27.14
   0.01285              -13.66          3.731          66.55          48.22         -16.67         0.2528          154.8          40.79         -74.99          75.38          27.15
   0.01542              -13.66          3.732          66.55          48.22         -16.66         0.2507          154.7          40.79          -75.0          75.39          27.15
   0.01799              -13.66          3.732          66.54          48.22         -16.66         0.2486          154.7          40.78         -75.01           75.4          27.16
   0.02056              -13.66          3.732          66.54          48.23         -16.65         0.2463          154.6          40.78         -75.02          75.42          27.17
   0.02313              -13.66          3.732          66.54          48.23         -16.65         0.2438          154.5          40.78         -75.03          75.43          27.17
    0.0257              -13.66          3.732          66.54          48.23         -16.64         0.2411          154.4          40.77         -75.04          75.45          27.18
   0.02827              -13.66          3.733          66.54          48.23         -16.63         0.2382          154.3          40.77         -75.05          75.46          27.19
   0.03084              -13.66          3.733          66.53          48.23         -16.63         0.2351          154.2          40.76         -75.06          75.48           27.2
   0.03341              -13.67          3.733          66.53          48.23         -16.62         0.2318          154.1          40.75         -75.08           75.5          27.21
   0.03598              -13.67          3.733          66.53          48.23         -16.61         0.2282          154.0          40.75         -75.09          75.52          27.22
   0.03855              -13.67          3.734          66.52          48.23          -16.6         0.2242          153.9          40.74         -75.11          75.54          27.23
   0.04112              -13.67          3.734          66.52          48.23         -16.59           0.22          153.7          40.73         -75.12          75.57          27.24
   0.04369              -13.67          3.734          66.52          48.23         -16.57         0.2153          153.6          40.72         -75.14           75.6          27.25
   0.04626              -13.68          3.735          66.51          48.23         -16.56         0.2103          153.4          40.72         -75.16          75.63          27.27
   0.04883              -13.68          3.735          66.51          48.23         -16.55         0.2047          153.2          40.71         -75.19          75.66          27.28
    0.0514              -13.68          3.736           66.5          48.23         -16.53         0.1986          153.0          40.69         -75.21          75.69           27.3
   0.05397              -13.68          3.736           66.5          48.23         -16.52         0.1919          152.8          40.68         -75.24          75.73          27.32
   0.05654              -13.69          3.737          66.49          48.23          -16.5         0.1845          152.6          40.67         -75.27          75.78          27.34
   0.05911              -13.69          3.738          66.48          48.24         -16.48         0.1763          152.3          40.65          -75.3          75.82          27.36
   0.06168               -13.7          3.738          66.48          48.24         -16.45         0.1671          152.0          40.64         -75.34          75.88          27.38
   0.06425               -13.7          3.739          66.47          48.24         -16.43         0.1569          151.7          40.62         -75.38          75.94          27.41
   0.06682              -13.71           3.74          66.46          48.24          -16.4         0.1455          151.3           40.6         -75.43           76.0          27.44
